<?xml version="1.0" encoding="utf-8"?>
<svg id="Layer_1" data-name="Layer 1" viewBox="0 0 122.88 122.88" xmlns="http://www.w3.org/2000/svg">
  <defs>
    <style>.cls-1{fill:#f44336;}.cls-1,.cls-2{fill-rule:evenodd;}.cls-2{fill:#fff;}</style>
  </defs>
  <title>dislike-button</title>
  <path class="cls-1" d="M61.44,0A61.44,61.44,0,1,1,0,61.44,61.44,61.44,0,0,1,61.44,0Z" style="fill: rgb(69, 175, 34);"/>
  <path class="cls-2" d="M 31.944 62.096 L 42.504 62.096 C 43.704 62.09 44.674 61.116 44.674 59.916 L 44.674 30.966 C 44.674 29.766 43.704 28.791 42.504 28.786 L 31.944 28.786 C 30.742 28.791 29.769 29.764 29.764 30.966 L 29.764 59.966 C 29.769 61.168 30.742 62.141 31.944 62.146 L 31.944 62.096 Z M 59.644 83.806 C 60.784 89.626 70.304 84.266 70.934 74.896 C 71.075 71.565 70.803 68.23 70.124 64.966 L 83.734 64.966 C 89.384 64.736 94.324 60.686 90.834 54.036 C 91.634 51.136 91.754 47.736 89.594 46.386 C 89.864 41.816 88.594 38.976 86.224 36.736 C 86.18 34.65 85.565 32.616 84.444 30.856 C 82.614 28.276 81.134 28.856 78.254 28.856 L 55.254 28.856 C 51.614 28.856 49.634 29.856 47.254 32.856 L 47.254 58.436 C 54.164 60.316 57.804 69.686 59.644 75.836 L 59.644 83.836 L 59.644 83.806 Z" transform="matrix(-1, 0, 0, -1, 121.76224, 115.009864)"/>
</svg>